<svg xmlns="http://www.w3.org/2000/svg" width="20.052" height="12.533" viewBox="0 0 20.052 12.533">
  <g id="behance" transform="translate(0 -95.979)">
    <g id="Group_6" data-name="Group 6" transform="translate(0 95.979)">
      <g id="Group_5" data-name="Group 5" transform="translate(0 0)">
        <path id="Path_38" data-name="Path 38" d="M8.249,101.644a3.008,3.008,0,0,0,.946-.694,2.7,2.7,0,0,0,.573-1.8A3.082,3.082,0,0,0,9.2,97.282a3.825,3.825,0,0,0-3.212-1.3H0V108.2H5.584a8.731,8.731,0,0,0,1.751-.164,3.443,3.443,0,0,0,1.4-.614,3.39,3.39,0,0,0,.877-.961,3.532,3.532,0,0,0,.553-1.949,3.207,3.207,0,0,0-.483-1.791A2.785,2.785,0,0,0,8.249,101.644ZM2.47,98.1h2.7a4.755,4.755,0,0,1,1.465.191,1.1,1.1,0,0,1,.666,1.13,1.151,1.151,0,0,1-.5,1.073,2.528,2.528,0,0,1-1.311.3H2.47Zm4.265,7.764a2.954,2.954,0,0,1-1.256.216H2.47v-3.26H5.521a3.184,3.184,0,0,1,1.241.206,1.311,1.311,0,0,1,.788,1.312A1.537,1.537,0,0,1,6.735,105.866Z" transform="translate(0 -95.979)" fill="#8c8c8e"/>
        <rect id="Rectangle_22" data-name="Rectangle 22" width="5.31" height="1.522" transform="translate(12.814 0.57)" fill="#8c8c8e"/>
        <path id="Path_39" data-name="Path 39" d="M288.88,174.808a4.36,4.36,0,0,0-.732-1.869,3.689,3.689,0,0,0-1.582-1.337,5.236,5.236,0,0,0-2.156-.424,4.461,4.461,0,0,0-3.276,1.253,4.862,4.862,0,0,0-1.262,3.6,4.342,4.342,0,0,0,1.4,3.618,5.029,5.029,0,0,0,3.227,1.112,4.492,4.492,0,0,0,3.448-1.317,2.966,2.966,0,0,0,.887-1.634h-2.446a1.973,1.973,0,0,1-.494.622,2.048,2.048,0,0,1-1.329.414,2.456,2.456,0,0,1-1.322-.341,2.159,2.159,0,0,1-.96-1.906h6.676A11.5,11.5,0,0,0,288.88,174.808Zm-6.536.234a2.45,2.45,0,0,1,.639-1.4,1.927,1.927,0,0,1,1.43-.518,2.127,2.127,0,0,1,1.422.486,1.977,1.977,0,0,1,.638,1.43Z" transform="translate(-268.91 -168.234)" fill="#8c8c8e"/>
      </g>
    </g>
  </g>
</svg>
