<svg xmlns="http://www.w3.org/2000/svg" width="17.845" height="17.845" viewBox="0 0 17.845 17.845">
  <path id="dribble" d="M1.665,14.1l-.017.021.386.473c.107.132.219.259.331.381.058.062.116.125.158.163l.036.036c.1.1.191.19.292.288.084.08.171.156.269.24l.039.032c.031.023.06.047.09.072l.057.047c.123.1.247.2.355.271.143.107.3.214.477.327l-.019.007.152.076.158.1c.157.091.314.177.453.245.054.028.111.057.169.085l.107.052c.063.029.127.053.19.081l.189.081.077.033.152.085h.066l.119.045,0,0,.1.037.125.039.166.052.048.015a.56.56,0,0,0,.068.021c.073.022.144.04.211.057l.089.022.028.007.011,0c.256.062.515.115.779.155l.056.01.1.012.165.019c.049.006.1.012.147.017l.022,0c.127.012.253.023.367.027.16.009.319.013.481.013.134,0,.263,0,.388-.01l.154-.008c.1-.006.206-.014.317-.024l.083-.008.061-.006.135-.016c.115-.013.235-.031.321-.048.03,0,.06-.012.089-.017.107-.019.214-.038.32-.061h0c.083-.016.169-.036.247-.054.036-.008.071-.019.106-.028l.007,0,.167-.044.17-.049.081-.027h0c.075-.024.152-.048.217-.071l.123-.039c.147-.054.294-.111.425-.166l.05-.022.013-.006c.129-.054.257-.111.383-.17.147-.07.29-.146.431-.223.126-.068.245-.139.363-.211l.138-.086c.094-.061.185-.121.277-.186.04-.026.084-.055.117-.081.085-.062.171-.126.255-.191l.076-.057c.116-.091.231-.187.342-.282l.105-.09.005-.01c.085-.077.169-.157.256-.241.114-.109.227-.227.337-.345s.215-.239.317-.361l.4-.475-.022-.026a8.892,8.892,0,0,0,0-10.362l.022-.026-.4-.474c-.1-.122-.207-.243-.317-.362s-.216-.225-.342-.349c-.083-.08-.166-.159-.251-.236l-.11-.1c-.111-.1-.226-.191-.342-.282l-.076-.057c-.084-.065-.168-.127-.248-.186-.04-.03-.084-.06-.125-.086-.091-.065-.183-.125-.277-.186l-.123-.08-.016-.005c-.118-.072-.237-.143-.362-.21-.143-.078-.286-.155-.433-.224s-.3-.138-.433-.193-.29-.119-.438-.172L11.806.481c-.1-.037-.207-.07-.33-.108L11.319.328C11.236.3,11.15.281,11.063.261l-.1-.025c-.049-.011-.1-.023-.148-.032L10.74.18H10.7c-.08-.018-.162-.033-.243-.046L10.409.126c-.115-.022-.235-.04-.328-.05L9.9.054l-.05,0-.042,0C9.687.035,9.57.026,9.461.02L9.319.012a8.132,8.132,0,0,0-.829,0c-.078,0-.156.011-.235.017-.06,0-.119.007-.178.013l-.019,0C8,.05,7.949.057,7.894.064L7.73.082,7.651.091,7.589.1c-.189.029-.376.064-.561.1H7.021c-.066.012-.127.027-.2.046L6.755.27,6.684.287C6.616.3,6.55.321,6.495.338c-.018,0-.05.013-.09.027l-.018,0c-.116.032-.229.067-.322.1L5.958.508l0,0L5.826.554H5.755L5.5.683C5.453.7,5.4.728,5.35.751S5.222.8,5.159.832L5.053.883C5,.912,4.937.94,4.911.955c-.095.045-.189.094-.26.136s-.125.067-.187.1L4.287,1.3l-.01.006-.156.079.018.007-.087.054-.075.05,0,0c-.1.068-.2.137-.278.195-.023.015-.046.032-.082.058-.084.059-.167.121-.247.19l-.055.043-.178.147c-.1.078-.192.162-.3.261l-.113.11a2.8,2.8,0,0,0-.21.209c-.052.05-.1.1-.148.154-.116.124-.226.252-.334.383l-.386.473.017.021a8.892,8.892,0,0,0,0,10.361ZM8.184,1.527c.243-.024.489-.038.738-.038a7.437,7.437,0,0,1,1.479.149l.026.005.087.029h.025a7.427,7.427,0,0,1,3.689,2.054A7.514,7.514,0,0,1,11.275,5.57l-.006-.019-.031.01c-.01-.024-.022-.047-.032-.071q-.088-.209-.186-.412c-.022-.046-.044-.094-.067-.14-.089-.177-.183-.351-.284-.522-.015-.026-.032-.051-.048-.077q-.13-.216-.273-.425c-.034-.05-.07-.1-.105-.15q-.127-.178-.263-.35c-.035-.044-.069-.089-.1-.133-.125-.152-.254-.3-.388-.446l-.04-.04c-.123-.13-.25-.255-.38-.378-.045-.042-.09-.083-.136-.123q-.16-.144-.327-.281c-.046-.038-.093-.077-.14-.114-.153-.12-.309-.237-.469-.347.047-.006.092-.016.139-.021l.05-.006ZM10.444,16.2l-.043.009q-.352.071-.715.109H9.675a7.513,7.513,0,0,1-.752.038c-.25,0-.5-.013-.74-.038l-.046-.005c-.048-.005-.094-.016-.141-.022.161-.11.316-.227.469-.347.047-.037.093-.076.14-.114q.167-.136.327-.281c.045-.041.091-.081.136-.123q.2-.184.38-.378l.04-.04c.135-.144.263-.293.388-.446.036-.044.07-.089.1-.133q.135-.172.263-.35c.036-.05.071-.1.105-.15q.142-.209.273-.425c.016-.026.033-.051.048-.077.1-.171.194-.345.284-.522.023-.046.045-.093.067-.14.065-.136.127-.273.186-.412.01-.024.022-.047.032-.071l.031.01.006-.019a7.514,7.514,0,0,1,2.954,1.844A7.424,7.424,0,0,1,10.444,16.2Zm-.691-4.225c-.08.177-.169.35-.262.519-.018.033-.036.067-.055.1q-.148.258-.316.5c-.023.034-.046.066-.07.1-.118.167-.241.331-.372.487l-.01.011c-.13.155-.268.3-.41.446l-.079.08q-.213.21-.442.4L7.65,14.7c-.16.13-.323.256-.494.373l0,0c-.171.117-.348.225-.528.327l-.1.057q-.264.145-.541.268l-.033.014c-.183-.08-.362-.165-.537-.259l-.062-.033a7.477,7.477,0,0,1-1.737-1.321,7.458,7.458,0,0,1,6.152-2.176l-.016.031ZM4.759,2.768l.016-.011a7.456,7.456,0,0,1,1.178-.645l.035.015q.274.123.537.266l.1.058c.18.1.356.209.526.326l0,0c.17.116.333.242.492.371l.088.071q.229.193.442.4c.027.026.052.053.079.08.143.144.28.292.41.447l.01.011c.131.157.254.321.372.487l.07.1c.111.163.217.331.316.5.019.033.036.067.055.1.094.17.182.342.262.519l.015.031A7.452,7.452,0,0,1,3.617,3.725a7.5,7.5,0,0,1,1.142-.957Zm4.164,4.67a9,9,0,0,0,1.314-.1,7.363,7.363,0,0,1,0,3.175,9.03,9.03,0,0,0-1.314-.1,8.908,8.908,0,0,0-6.24,2.543,7.388,7.388,0,0,1,0-8.06,8.907,8.907,0,0,0,6.24,2.543Zm6.236,5.523a9.01,9.01,0,0,0-3.441-2.1l.013-.04-.039-.009a8.811,8.811,0,0,0,0-3.777l.039-.009-.013-.04a9.008,9.008,0,0,0,3.441-2.1,7.39,7.39,0,0,1,0,8.072Zm0,0" transform="translate(0 -0.002)" fill="#8c8c8e"/>
</svg>
