<svg xmlns="http://www.w3.org/2000/svg" width="19.662" height="18.843" viewBox="0 0 19.662 18.843">
  <path id="github" d="M9.831.5A9.746,9.746,0,0,0,0,10.161a9.677,9.677,0,0,0,6.722,9.166c.492.091.672-.208.672-.465,0-.229-.008-.837-.012-1.643-2.735.582-3.311-1.3-3.311-1.3A2.575,2.575,0,0,0,2.976,14.51c-.891-.6.069-.587.069-.587a2.057,2.057,0,0,1,1.506,1,2.117,2.117,0,0,0,2.863.8,2.045,2.045,0,0,1,.623-1.292c-2.183-.242-4.478-1.072-4.478-4.774A3.691,3.691,0,0,1,4.571,7.065a3.38,3.38,0,0,1,.086-2.557s.823-.259,2.7.99a9.426,9.426,0,0,1,4.915,0c1.868-1.249,2.691-.99,2.691-.99a3.473,3.473,0,0,1,.1,2.557,3.706,3.706,0,0,1,1.008,2.592c0,3.711-2.3,4.528-4.485,4.766a2.292,2.292,0,0,1,.664,1.788c0,1.293-.012,2.332-.012,2.645,0,.253.172.555.676.459a9.647,9.647,0,0,0,6.747-9.153A9.747,9.747,0,0,0,9.831.5Z" transform="translate(0 -0.5)" fill="#8c8c8e"/>
</svg>
