<svg xmlns="http://www.w3.org/2000/svg" width="15.333" height="15.333" viewBox="0 0 15.333 15.333">
  <g id="linkedin-logo" transform="translate(-14 -20)">
    <g id="post-linkedin" transform="translate(14 20)">
      <path id="Path_40" data-name="Path 40" d="M13.8,0H1.533A1.538,1.538,0,0,0,0,1.533V13.8a1.538,1.538,0,0,0,1.533,1.533H13.8A1.538,1.538,0,0,0,15.333,13.8V1.533A1.538,1.538,0,0,0,13.8,0ZM4.6,13.033H2.3v-6.9H4.6ZM3.45,4.83A1.38,1.38,0,1,1,4.83,3.45,1.374,1.374,0,0,1,3.45,4.83Zm9.583,8.2h-2.3V8.97a1.15,1.15,0,0,0-2.3,0v4.063h-2.3v-6.9h2.3v.92A2.477,2.477,0,0,1,10.35,5.98a2.716,2.716,0,0,1,2.683,2.683Z" fill="#8c8c8e"/>
    </g>
  </g>
</svg>
