<svg xmlns="http://www.w3.org/2000/svg" width="21.662" height="17.6" viewBox="0 0 21.662 17.6">
  <g id="twitter" transform="translate(0 -48)">
    <g id="Group_4" data-name="Group 4" transform="translate(0 48)">
      <path id="Path_37" data-name="Path 37" d="M21.662,50.084a9.259,9.259,0,0,1-2.559.7,4.416,4.416,0,0,0,1.954-2.455,8.875,8.875,0,0,1-2.816,1.075,4.441,4.441,0,0,0-7.682,3.037,4.573,4.573,0,0,0,.1,1.013A12.57,12.57,0,0,1,1.508,48.81a4.442,4.442,0,0,0,1.365,5.935A4.386,4.386,0,0,1,.866,54.2v.049A4.461,4.461,0,0,0,4.424,58.61a4.432,4.432,0,0,1-1.164.146,3.926,3.926,0,0,1-.841-.076,4.483,4.483,0,0,0,4.15,3.094,8.923,8.923,0,0,1-5.506,1.894A8.318,8.318,0,0,1,0,63.607,12.5,12.5,0,0,0,6.813,65.6a12.553,12.553,0,0,0,12.64-12.637c0-.2-.007-.386-.016-.574A8.859,8.859,0,0,0,21.662,50.084Z" transform="translate(0 -48)" fill="#8c8c8e"/>
    </g>
  </g>
</svg>
